<svg width="24" height="24" viewBox="0 0 24 24" fill="none" xmlns="http://www.w3.org/2000/svg">
<path fill-rule="evenodd" clip-rule="evenodd" d="M8.72001 18.7801C8.86064 18.9205 9.05126 18.9994 9.25001 18.9994C9.44876 18.9994 9.63939 18.9205 9.78001 18.7801L16.03 12.5301C16.1705 12.3895 16.2494 12.1988 16.2494 12.0001C16.2494 11.8013 16.1705 11.6107 16.03 11.4701L9.78001 5.22009C9.63784 5.08761 9.44979 5.01549 9.25549 5.01892C9.06119 5.02234 8.8758 5.10106 8.73839 5.23847C8.60098 5.37588 8.52226 5.56127 8.51884 5.75557C8.51541 5.94987 8.58753 6.13792 8.72001 6.28009L14.44 12.0001L8.72001 17.7201C8.57956 17.8607 8.50067 18.0513 8.50067 18.2501C8.50067 18.4488 8.57956 18.6395 8.72001 18.7801V18.7801Z" fill="#0F4B57"/>
</svg>
