<svg width="24" height="24" viewBox="0 0 24 24" fill="none" xmlns="http://www.w3.org/2000/svg">
<path fill-rule="evenodd" clip-rule="evenodd" d="M15.5293 18.7613C15.3887 18.9017 15.1981 18.9806 14.9993 18.9806C14.8006 18.9806 14.6099 18.9017 14.4693 18.7613L8.21932 12.5113C8.07887 12.3707 7.99998 12.18 7.99998 11.9813C7.99998 11.7825 8.07887 11.5919 8.21932 11.4513L14.4693 5.20129C14.6115 5.06881 14.7995 4.99669 14.9938 5.00012C15.1881 5.00355 15.3735 5.08226 15.5109 5.21967C15.6484 5.35708 15.7271 5.54247 15.7305 5.73677C15.7339 5.93107 15.6618 6.11912 15.5293 6.26129L9.80932 11.9813L15.5293 17.7013C15.6698 17.8419 15.7487 18.0325 15.7487 18.2313C15.7487 18.43 15.6698 18.6207 15.5293 18.7613V18.7613Z" fill="#0F4B57"/>
</svg>
